<svg xmlns="http://www.w3.org/2000/svg" width="1120" height="640" viewBox="0 0 1120 640">
<rect width="1120" height="640" fill="#ffffff" />
<text x="40" y="36" font-family="Arial" font-size="24" font-weight="700">Cumulative solve rate by consumed effort</text>
<text x="40" y="60" font-family="Arial" font-size="13" fill="#4b5563">Minimax cascade on selected 50-task panel; x-axis is cumulative total tokens from executed runs.</text>
<line x1="98" x2="1076" y1="552.0" y2="552.0" stroke="#e5e7eb" />
<text x="86" y="556.0" text-anchor="end" font-family="Arial" font-size="12">0%</text>
<line x1="98" x2="1076" y1="452.8" y2="452.8" stroke="#e5e7eb" />
<text x="86" y="456.8" text-anchor="end" font-family="Arial" font-size="12">20%</text>
<line x1="98" x2="1076" y1="353.6" y2="353.6" stroke="#e5e7eb" />
<text x="86" y="357.6" text-anchor="end" font-family="Arial" font-size="12">40%</text>
<line x1="98" x2="1076" y1="254.4" y2="254.4" stroke="#e5e7eb" />
<text x="86" y="258.4" text-anchor="end" font-family="Arial" font-size="12">60%</text>
<line x1="98" x2="1076" y1="155.2" y2="155.2" stroke="#e5e7eb" />
<text x="86" y="159.2" text-anchor="end" font-family="Arial" font-size="12">80%</text>
<line x1="98" x2="1076" y1="56.0" y2="56.0" stroke="#e5e7eb" />
<text x="86" y="60.0" text-anchor="end" font-family="Arial" font-size="12">100%</text>
<line x1="98.0" x2="98.0" y1="56" y2="552" stroke="#f3f4f6" />
<text x="98.0" y="590" text-anchor="middle" font-family="Arial" font-size="12">0.0M</text>
<line x1="293.6" x2="293.6" y1="56" y2="552" stroke="#f3f4f6" />
<text x="293.6" y="590" text-anchor="middle" font-family="Arial" font-size="12">7.9M</text>
<line x1="489.2" x2="489.2" y1="56" y2="552" stroke="#f3f4f6" />
<text x="489.2" y="590" text-anchor="middle" font-family="Arial" font-size="12">15.9M</text>
<line x1="684.8" x2="684.8" y1="56" y2="552" stroke="#f3f4f6" />
<text x="684.8" y="590" text-anchor="middle" font-family="Arial" font-size="12">23.8M</text>
<line x1="880.4" x2="880.4" y1="56" y2="552" stroke="#f3f4f6" />
<text x="880.4" y="590" text-anchor="middle" font-family="Arial" font-size="12">31.7M</text>
<line x1="1076.0" x2="1076.0" y1="56" y2="552" stroke="#f3f4f6" />
<text x="1076.0" y="590" text-anchor="middle" font-family="Arial" font-size="12">39.7M</text>
<line x1="98" x2="98" y1="56" y2="552" stroke="#111827" />
<line x1="98" x2="1076" y1="552" y2="552" stroke="#111827" />
<polyline points="112.8,492.5 137.8,423.0 198.8,343.7 267.5,264.3 333.8,185.0 432.7,175.0 563.5,145.3 715.1,105.6 866.2,75.8 1076.0,75.8" fill="none" stroke="#0f766e" stroke-width="3" />
<circle cx="112.8" cy="492.5" r="7" fill="#0f766e" />
<circle cx="137.8" cy="423.0" r="7" fill="#0f766e" />
<circle cx="198.8" cy="343.7" r="7" fill="#0f766e" />
<circle cx="267.5" cy="264.3" r="7" fill="#0f766e" />
<circle cx="333.8" cy="185.0" r="7" fill="#0f766e" />
<circle cx="432.7" cy="175.0" r="7" fill="#0f766e" />
<circle cx="563.5" cy="145.3" r="7" fill="#0f766e" />
<circle cx="715.1" cy="105.6" r="7" fill="#0f766e" />
<circle cx="866.2" cy="75.8" r="7" fill="#0f766e" />
<circle cx="1076.0" cy="75.8" r="7" fill="#0f766e" />
<text x="112.8" y="478.5" text-anchor="middle" font-family="Arial" font-size="12">p01</text>
<text x="137.8" y="409.0" text-anchor="middle" font-family="Arial" font-size="12">p02</text>
<text x="198.8" y="329.7" text-anchor="middle" font-family="Arial" font-size="12">p03</text>
<text x="267.5" y="250.3" text-anchor="middle" font-family="Arial" font-size="12">p04</text>
<text x="333.8" y="171.0" text-anchor="middle" font-family="Arial" font-size="12">p05</text>
<text x="432.7" y="161.0" text-anchor="middle" font-family="Arial" font-size="12">p06</text>
<text x="563.5" y="131.3" text-anchor="middle" font-family="Arial" font-size="12">p07</text>
<text x="715.1" y="91.6" text-anchor="middle" font-family="Arial" font-size="12">p08</text>
<text x="866.2" y="61.8" text-anchor="middle" font-family="Arial" font-size="12">p09</text>
<text x="1076.0" y="61.8" text-anchor="middle" font-family="Arial" font-size="12">p10</text>
<text x="28" y="320" text-anchor="middle" font-family="Arial" font-size="13" transform="rotate(-90 28 320)">cumulative solve rate</text>
<text x="587.0" y="622" text-anchor="middle" font-family="Arial" font-size="13">cumulative total tokens</text>
</svg>